<svg enable-background="new 0 0 300 300" viewBox="0 0 300 300" xmlns="http://www.w3.org/2000/svg"><path d="m300 250c0 27.5-22.5 50-50 50h-200c-27.5 0-50-22.5-50-50v-200c0-27.5 22.5-50 50-50h200c27.5 0 50 22.5 50 50z" fill="#6366f1"/><path d="m115 144c0 6.2-2.2 11.6-6.6 16s-9.8 6.6-16 6.6-11.6-2.2-16-6.6-6.6-9.8-6.6-16 2.2-11.6 6.6-16 9.8-6.6 16-6.6 11.6 2.2 16 6.6c4.4 4.5 6.6 9.8 6.6 16z"/><path d="m186.2 120.9c-3 14.7-5.6 27.5-7.8 38.3s-4.8 22.1-7.8 33.9c-1.5 5.8-3.9 11.4-7.3 17s-7.5 10.4-12.1 14.4c-4.9 4.3-10.2 7.6-15.9 10s-11.6 3.6-17.6 3.6c-5.4 0-9.8-.5-13.2-1.6s-6-2.4-7.9-4.1c-1.8-1.7-3.1-3.5-3.8-5.5s-1-4-1-6c0-3.5 1.2-6.5 3.7-9.2s5.8-4 10-4c3.2 0 6 .8 8.4 2.5s4.4 3.7 6 6.1c1.7 2.3 3.1 4.9 4.4 7.8s2.3 5.1 3 6.7c2.5-2.7 4.9-6.9 7.1-12.4s4.3-12.8 6.2-22l16-75.6h-17.3l2.1-9.2h17.2l1.5-6.9c1.2-5.6 3.5-11.1 6.8-16.5s7.3-10.2 12-14.4c4.5-4.2 9.8-7.6 15.7-10.2s11.9-3.9 17.8-3.9c5.2 0 9.5.5 12.9 1.5s6.1 2.3 8.1 4.1c1.8 1.6 3 3.4 3.6 5.4s.9 4 .9 5.9c0 1.3-.3 2.8-.8 4.4s-1.3 3.1-2.4 4.4c-1.3 1.5-2.7 2.7-4.1 3.5-1.5.8-3.6 1.3-6.4 1.3-3.2 0-6-.8-8.3-2.5s-4.3-3.7-5.9-6c-1.7-2.4-3.2-5.1-4.4-7.9s-2.2-5-2.9-6.7c-2.4 2.8-4.6 6.9-6.6 12.2-2 5.4-4 12.7-6.1 22.2l-2.2 10.3h22.5l-2.1 9.2h-22z"/></svg>